<svg version="1.1" xmlns="http://www.w3.org/2000/svg" xmlns:xlink="http://www.w3.org/1999/xlink" x="0px" y="0px"
	 viewBox="0 0 1417 1417" style="enable-background:new 0 0 1417 1417;" xml:space="preserve">
<style type="text/css">
	.st0{fill:#124037;}
	.st1{fill:#D4854A;}
	.st2{fill:#709B56;}
	.st3{fill:#A86F4B;}
	.st4{fill:#709A56;}
	.st5{fill:#709A55;}
	.st6{fill:#E4B897;}
	.st7{fill:#A86E4B;}
	.st8{fill:#6F9A55;}
	.st9{fill:#6F9955;}
	.st10{fill:#DFB695;}
	.st11{fill:#6E9955;}
	.st12{fill:#946E43;}
	.st13{fill:#689353;}
	.st14{fill:#B67B47;}
	.st15{fill:#856346;}
	.st16{fill:#869E99;}
	.st17{fill:#264833;}
	.st18{fill:#264832;}
</style>
<g>
	<path class="st0" d="M1127.4,257c-1.5-2.4-2.6-2.9-4.8-0.5c-4.3,4.9-7.3,10.8-11.3,15.8c-7.4,9.2-15.3,18-22.9,27.1
		c-17.5,20.8-33.2,42.8-45.9,66.9c-5.7,11.1-10.8,22.5-14.4,34.4c-3.9,12.8-6,25.9-6.5,39.3c-1.3,35.4-9,69.2-25.2,100.9
		c-8.2,16-18.9,30.2-31.1,43.2c-16.2,17.2-33.6,33.3-50.8,49.6c-30.6,29-52.1,63.5-66.6,103c-13.4,36.5-31,71-50,104.9
		c-7.3,13.1-14,26.5-23,38.6c-1.1,1.4-2.1,3-5.5,4.3c6.9-13.7,13.4-26.2,18.5-39.3c0,0,0,0,0,0c0.3-6.2,2.9-12.2,1.2-18.7
		c-3.7-13.9-14.1-20.6-26.4-24.8c-11.6-3.9-21.8-0.4-30.7,7.9c-16.2,15.3-24.9,34.1-26.9,56.2c-1,11.3,3.8,19.6,13.5,25.2
		c4.9,2.8,10,5.2,15.6,6.5c1.7,0.4,3.3,1.2,6.3,2.4c-9.3,1.4-16.2-1.4-22.5-5.3c-14.6-9-21.5-22.7-22.9-39.3
		c-2.1-24.4,4.9-47,14-69.2c3.3-8,6.6-16,11.7-23c9.7-18.9,22.7-35.6,34.1-53.4c18.1-28.3,28.3-59.3,32.1-92.5
		c0.4-3.3,1.3-4.6,4.9-5.3c15.4-2.9,31.1-4.7,45.9-10.6c22.9-9.3,42.6-23,59-41.4c5.8-6.5,4.6-12.3-3.3-15.8
		c-18.5-8.1-37.7-8.4-57.1-4.6c-13.1,2.5-24.8,8.3-36,15.2c-2.3,1.4-3.5,2.3-4.4-1.4c-1-4.1-4.7-4.7-7.4-1.4c-2.9,3.6-4,8-4.8,12.4
		c-1.3,6.7-10.4,16.4-17.1,17.9c-3.3,0.7-4.6,3.1-3.5,6c1.4,3.7-1.1,5.7-2.9,7.9c-2.1,2.5-4.3,0-6.3-0.8c-8.7-3.9-17.9-6.4-27.3-7.9
		c-3.8-0.6-4.3-2.1-2.8-5.4c12.4-28.1,26.9-55,46.3-79c6.3-7.8,13.6-14.6,21.6-20.6c2.6-2,5.3-2.3,8.8-1.5
		c32.6,7.4,63.4,3,91.3-16.1c30.7-20.9,52.6-49.5,70.2-81.8c0.4-0.7,0.7-1.5,1.1-2.2c4-8.5,2.2-12-7.2-13.3
		c-56-7.5-103.1,9.6-141.4,51.4c-10.1,11.1-17.2,24-24.8,36.7c-4.4,7.3-10.3,13-16,19c-0.7,0.7-1.4,1.7-2.5,1
		c-0.5-0.4-0.6-1.5-0.5-2.3c1.5-11.9,2.9-23.8,4.6-35.6c0.5-3.3,3.3-5.3,5.4-7.6c11-11.9,21.1-24.4,28.8-38.8
		c1.8-3.3,3.3-6.8,5-10.2c0,0,0,0,0,0c7.4-16.2,11.7-33.2,13.5-50.9c0.6-6.4,1.5-12.1,6.7-16.9c5-4.6,9.4-9.9,13.4-15.4
		c12.4-17.3,23.3-35.6,34-54c27.5-47.4,54.5-95,77.8-144.6c5-10.7,9.9-21.5,12.5-33.1c1.3-5.8,3.1-11.7-1.1-17.3
		c-3.3,2-6.2,4.2-7.5,8.2c-1.2,3.6-2.7,7.2-4.2,10.7c-7.3,17.2-16.4,33.5-25.1,49.9c-16.8,31.8-33.8,63.4-51.5,94.7
		c-14.4,25.5-28.9,50.9-44.7,75.6c-2.2,3.5-4.8,6.8-7.3,10.1c-0.4,0.6-1.4,1.2-2,1.1c-0.9-0.1-0.9-1.2-1-2c-0.3-3.1-0.7-6.3-1-9.4
		c-0.8-7.8-3-15.3-5.5-22.7c-2.1-6-4.8-6.4-10-3c-4.9,3.2-8.2,7.8-11.8,12.1c-10.1,12.1-20.5,24-28.3,37.9
		c-9.8,17.3-15.5,35.9-17.8,55.6c-0.2,1.6-0.4,2.9-1.7,3.9c-3.5,2.5-7,5.1-10.4,7.7c-0.8,0.6-1.7,1.4-2.7,0.8
		c-1.1-0.6-0.7-1.8-0.6-2.7c0.4-2.9,1.2-5.9,1.4-8.8c0.7-8.6,1.2-17.3-0.7-25.8c-0.9-4.2-3.4-5.3-7-3.3
		c-29,16.2-46.7,40.2-51.4,73.4c-0.8,5.7-0.9,11.5-7.7,14.2c-3,1.2-3.6,1.2-3.9-2.1c-1.9-16.2-3.1-32.4-4.4-48.6
		c-1.7-22.1,2-43.3,8.3-64.2c4.2-13.8,11.6-24.4,25.1-31c9.6-4.7,18.2-11.6,26.3-18.8c17.8-15.8,31-35,41.9-56
		c12.3-23.7,19.6-49,24.7-74.9c1.5-7.8,3.2-15.6,3.1-23.6c-0.1-4.8-2.3-7.2-6.3-6.2c-11.4,2.8-22.9,5.5-34,9.3
		c-11,3.8-21.4,9-31.1,15.7c-15.2,10.5-28.6,22.8-38.5,38.5c-21.9,34.7-25.6,72.8-20.7,112.4c1.1,9.3-0.7,17.8-6,26.7
		c-0.9-7.1-1.8-13-2.3-18.9c-1.7-19.5-2.3-39.1-4.9-58.5c-3.5-26.1-7.7-52.2-11.8-78.2c-1.2-7.9-4.4-15.3,4.2-23.2
		c0.6-0.6,1-1.3,1.4-2.2c5.9-10.8,6.8-22.4,6-34.3c-1.2-15.8-8.1-29.3-18.4-40.6c-8.5-9.3-20.2-13.6-32.9-15c-5.3-0.6-9.9,2.7-9.9,8
		c-0.2,18.8-2,37.6,3.7,56c3.9,12.8,8.9,24.9,19.1,33.9c4.1,3.6,7.4,6.6,8.2,12.6c2.7,19.2,6.2,38.3,9.4,57.5
		c1,6.1,1.6,12.3,2.4,18.5c-4.6-4.4-7-9.8-9.9-15c-5.4-9.9-12.7-18.9-16.2-29.8c-8.3-25.9-22.3-47.5-45.4-62.4
		c-12.4-8-26.1-13.4-41.2-13c-10,0.2-13.9,6.6-10.3,14.9c2.2,5.2,4.4,10.4,6.7,15.6c13.4,29.7,34.3,50.9,66.7,59.6
		c6.2,1.7,13,2.5,17.3,9.3c8.8,14.3,16,29.5,24.1,44.2c11.7,21.4,15.3,44.3,16.2,68.2c0.6,15.4,2,30.8,3.6,46.2
		c0.5,4.4,1.7,8.9,1,14.3c-1.3-1.5-2-2-2.4-2.7c-8-13.5-14.3-27.6-17.1-43.3c-5.7-32-17-61.4-40.7-85
		c-18.4-18.3-39.8-31.4-64.6-38.7c-16.6-4.9-33.6-7.4-50.9-7.9c-7.2-0.2-14.2,1.1-21.2,2.2c-5.2,0.8-7,3.6-5.9,8.9
		c0.4,1.6,0.9,3.2,1.6,4.7c4.6,10,9.1,20,13.9,29.9c17.2,35.3,39.6,66.4,72.5,89.1c20.6,14.2,43.1,23.7,67.4,29.5
		c7.7,1.8,16.3,2.8,21.8,9.7c6.9,8.8,12.4,18.5,17.1,28.7c6,12.9,10.2,26.4,14.1,40c0.9,3.1,0.5,4.9-2.3,6.6
		c-10.5,6.7-20.8,13.8-31.3,20.5c-9.7,6.2-9.6,5.8-17.7-2.5c-17.6-17.9-37.8-31.5-62.2-38.9c-15.1-4.6-30.5-7.1-46-7
		c-16.7,0.1-33.3,2.6-49.5,7.3c-19.5,5.6-37.6,14.3-54.6,25.1c-6.8,4.3-14.1,8.3-19.3,14.8c-2.9,3.6-3.2,7,0.3,10.6
		c6.5,6.8,14.4,11.8,21.7,17.5c24,18.7,47.9,37.3,75.1,51.4c22.9,11.9,46.8,20.1,72.5,23.1c5.9,0.7,6.1,1.1,4,6.6
		c-6.6,16.6-15.9,31.8-25,47.1c-14.8,25.3-30.9,49.8-45.5,75.2c-10.5,18.1-15.4,36.6-7.2,57.1c7.6,19,9.9,39,8.7,59.3
		c-0.8,13.9,1.4,27.4,3.5,41c2.1,13.3,4.8,26.4,4.9,40c0.1,17.5-1.1,35,0.9,52.4c1.3,11.5,2.8,23.1,8.2,33.7
		c4.2,8.2,10.9,13.6,20.1,14.6c14.7,1.6,26.6-4.5,36.5-14.9c17-17.9,23.1-40.2,24.1-63.9c0.8-17.7,1-35.5-2.3-53.2
		c-2.2-11.6-3.8-23.2-8.1-34.3c-0.9-2.5-2.6-5.8,0.5-7.1c2.6-1.1,3.3,2.6,4.4,4.3c18,27.7,41.3,49.5,71.6,63.2
		c15.4,7,29.4,16.1,42.6,26.6c3.5,2.8,4.4,5.6,3.5,9.5c-3,13.5-6,26.9-11.4,39.7c-12.1,28.9-35.4,44.4-63.6,53.9
		c-11,3.7-22.6,5-33.8,8.2c-12.9,3.8-24.4,10.4-35,18.4c-12.8,9.6-21.4,23-30.2,36.1c-6.4,9.5-12.3,19.4-21.5,26.6
		c-3.5,2.8-6.9,5.8-10.1,8.9c-2.2,2.1-3.8,4.9-2.4,8.1c1.6,3.4,5,3.3,7.9,2.6c11.1-2.5,20.7-8,28-16.9c7-8.5,12.4-18.1,18.9-26.9
		c14.5-19.8,32.7-34.3,57.4-39.1c2.4-0.5,4.4-3.1,7.3-1.1c-0.2,0.6-0.3,1.1-0.6,1.5c-10.8,12-18.3,26.1-24.8,40.7
		c-4,9.1-7.6,18.4-13.8,26.5c-5.8,7.5-12.8,14-19.3,20.9c-11.3,12.1-19.6,26-22.9,42.4c-0.5,2.3-0.9,5.1,1.7,6.2
		c2.8,1.2,3.8-1.8,4.7-3.4c6.6-12.6,16.1-22.7,26.6-32c3.7-3.3,6.5-7.8,11.4-10.4c-0.6,8.9-1,17.2-1.9,25.4
		c-1.4,13.5-4.4,26.4-11.4,38.4c-3.9,6.6-9,12.8-9.8,21c-0.1,1.3-0.9,2.7,0.5,3.6c1.4,0.9,3,0.7,4.3-0.2c2.7-1.9,5.6-3.7,7.9-6
		c14.3-14.8,20.3-33.2,23.1-53c1.7-11.8,2.7-23.8,4.5-35.6c3.1-19.5,11.6-36.8,21.9-53.6c10-16.4,23.5-28.6,39.7-38.2
		c12.4-7.3,23.8-15.7,32.7-27.3c1.1-1.4,2.2-3.3,4.7-3.3c0.5,9.3-1.8,18-4.1,26.6c-4.7,17.3-14.8,31.5-26.8,44.5
		c-6.1,6.6-11.8,13.6-16.6,21.1c-15.5,24.3-24.1,50.9-27.6,79.4c-1.8,14.9-6.1,28.8-17.7,39.7c-9.7,9.1-16.6,20.3-19.7,33.5
		c-0.6,2.4-1,5,1.5,6.2c2.5,1.2,3.5-1.6,4.5-3c4.9-7.4,11.5-13.2,17.9-19.2c11.9-11.1,20.6-24.1,25.2-39.9
		c3.5-11.8,4.8-24.1,8.6-35.8c2.3-7.2,4.2-14.6,9.2-22.1c0.6,9.9,0.8,18.5,1.7,27c2.3,20.5-0.2,40.1-10.1,58.5
		c-9.3,17.2-13.2,35.8-13.1,55.2c0,11.8-0.3,23.6-3.2,35.2c-1.3,5.3-3.1,10.5-4.7,15.8c-0.6,1.9-0.3,3.8,1.7,4.7
		c1.8,0.8,3.2,0,4.2-1.6c1.5-2.2,3.1-4.2,4.2-6.7c5.9-13.2,8.1-27,8-41.3c0-19.7,4.8-38.2,15.4-54.9c11.3-17.8,15-37.6,14.2-58.2
		c-0.5-12.3-1-24.6-0.6-36.9c0.5-13.1,4.2-25.3,11.8-36c5.6-7.8,11.7-15.3,16.8-23.5c0.9-1.4,1.7-3.1,3.7-3.9c0.3,2.7,0.6,5,0.9,7.3
		c1.8,12.8,4.2,25.6,5.2,38.5c2.3,27.4-4.7,53-16.5,77.6c-7.1,14.8-14.6,29.5-18.9,45.6c-5.1,19.2-7,38.5-4.6,58.3
		c1.2,9.6,2.3,19.1,3,28.7c1,13.4-0.9,26.5-4.2,39.5c-0.8,3.2-2,6.4-0.9,9.8c0.5,1.6,1,3.4,3,3.6c1.9,0.2,3-1.2,4-2.6
		c0.6-0.8,1-1.7,1.4-2.6c6.2-14.3,9.9-29.2,10.2-44.9c0.2-9.7-0.6-19.3-1.2-28.9c-1.7-28.3,2.7-55.4,16.3-80.7
		c0.8-1.4,1.2-3.3,3.4-4.2c0.3,24.2,5.9,46.9,13.6,69.1c7.9,23,7.6,46.3,3.9,69.9c-2,12.8-3.9,25.7-3.2,38.7
		c0.3,6.3,0.4,12.7,4.2,18.2c1.1,1.6,2.4,3.5,4.8,2.7c2.2-0.8,3.3-2.7,3.3-5.1c0-1.2,0-2.3,0-3.5c-0.4-12.9,1.4-25.5,3.7-38.1
		c2.4-12.7,5.2-25.4,6.2-38.3c1.8-22.5-2.7-44-10.7-65c-5.6-14.7-8.1-30.1-9.2-45.7c-1.4-19,0.8-37.9,4.3-56.6
		c0.9-4.7,0.8-9.8,3.2-15c3.2,5.3,5.9,10,8.8,14.6c8.7,13.8,16.5,28.1,19.9,44.3c2.5,12.2,3.1,24.7,4.4,37.1
		c1.9,16.9,5.5,33,15.5,47.4c7.8,11.2,14.3,23.2,18.1,36.5c1.7,5.9,2.9,11.9,3.7,18c0.3,2.2,0.1,5,3.4,5.3c3.1,0.3,3.7-2.3,4.8-4.3
		c1-1.8,1-3.8,1-5.8c0.1-18.4-5.1-35.5-13.7-51.5c-7-13.1-14.6-25.9-15.9-41.1c-1-12.1-1.8-24.2-2.3-36.3
		c-1-23.5-10.1-43.7-23.3-62.7c-8.5-12.2-16-24.9-20.7-39.1c-8.7-26.2-9.9-53.1-8.9-80.3c0.2-5,0.9-10.1,1.4-15.4
		c1.7,1,1.8,2.4,2,3.6c5.3,29.2,20.4,52.9,40.1,74.5c8.6,9.4,16.6,19.4,21.5,31.5c6.7,16.6,8.1,34.2,10.5,51.6
		c2.6,19.2,7.3,37.5,20.1,52.9c8.9,10.7,16.6,22.1,20,35.9c0.6,2.6,0.7,6.7,4.4,6.1c3.2-0.5,2.8-4.4,2.9-7.2c0-0.7,0-1.3,0-2
		c-0.3-16.8-7.1-31.3-16.8-44.6c-9.1-12.6-12.8-26.8-14.3-41.9c-1.3-13.5-2-27.1-4.6-40.6c-0.9-4.5-2.6-9.1-2-14.1
		c2.7,0.7,4.6,2,6.5,3.3c9.2,6.3,16.3,14.5,21.5,24.4c7.7,14.7,14,29.8,16.5,46.3c2.1,13.6,1.1,27.6,3.7,41.2
		c2.3,12.1,4.8,24.2,11.9,34.7c1.7,2.6,3.5,7.5,7.5,5.7c3.8-1.7,2.2-6.1,1.2-9.4c-5.6-19.3-8.4-38.9-8.9-59c0-1.7-1.1-4.3,0.6-5.1
		c2.2-1,3.3,1.7,4.6,3c7.3,7.3,12.9,15.9,17.6,25.1c1.3,2.5,1.1,7.6,5.5,6.3c4.6-1.3,1.9-6,2.3-9.1c0.1-0.6-0.2-1.3-0.3-2
		c-1.8-12.6-8.3-22.7-16.9-31.6c-8.9-9.2-16.5-19.1-20.1-31.6c-8.1-28.3-25.7-49.7-48.6-67.6c-14.1-11-28.7-21.6-40.2-35.6
		c-9.2-11.1-14.7-24-19-37.6c-0.3-0.9-0.8-2,0.1-2.8c0.9-0.8,1.9,0,2.7,0.5c2.1,1.1,4,2.4,6.1,3.3c17.9,7.5,36.1,14.4,53.2,23.7
		c12.5,6.8,23.5,15.4,32.7,26.4c10.4,12.4,16.2,27,22,41.7c5.5,14.2,13.1,27,25,36.7c6.5,5.3,12.8,10.6,16.6,18.2
		c0.8,1.6,1.5,4.1,3.5,3.6c2.5-0.5,2.6-3.1,2.5-5.4c-0.3-8.3-3.3-15.6-8.1-22.1c-5.6-7.6-11.8-14.8-17-22.7
		c-6.5-9.9-10-21.4-13.8-32.5c-6.3-18.7-15.9-35.1-32.1-46.9c-0.8-0.6-2-1.3-1.5-2.7c21.7,0.2,39.1,9.6,54.2,24.6
		c8.5,8.4,16.9,17,27.6,22.7c6.5,3.5,13.4,5.5,20.9,5c2.8-0.2,5.5-1.2,6.4-4c0.9-2.9-1.2-5-3.3-6.7c-1.4-1.1-3-2.1-4.7-2.9
		c-8.6-4.3-15.8-10.3-22.8-16.8c-9.2-8.4-17.1-18-26.9-25.8c-13.6-10.8-28.9-17.7-45.8-20.7c-20.1-3.5-40.7-5-60.1-12.1
		c-9.4-3.5-18.6-7.5-26.2-13.9c-16.2-13.7-21.5-32.7-24.2-52.7c-0.3-2.1,0.1-3.8,2.6-4.7c5.8-2,9.7-6.4,12.6-11.6
		c2.3-4,4.7-7.2,10.1-5.3c1.3,0.5,3,0,4.4-0.3c17.5-2.7,30.5-12.4,41-26.2c9.3-12.2,16.1-26,23.9-39.1
		c22.3-37.7,40.3-77.5,56.1-118.4c11-28.4,27.2-53.7,48.2-75.8c20.8-21.9,43.8-41.5,64.3-63.6c5.4-5.8,10.5-12.1,15.1-18.5
		c12.2-16.8,21.8-35,28.4-54.7c4.9-14.5,8.4-29.4,10.8-44.5c1.9-12,1.8-24.2,3-36.2c1.4-13.7,3.9-27.3,8.8-40.2
		c10.2-26.9,25.7-50.7,42.7-73.6c12.3-16.6,26.8-31.3,39.6-47.5C1129.9,269.7,1130.4,261.7,1127.4,257z M866.1,559.3
		c-22.9,19.7-47.8,32.2-78.3,32.1C802.3,572.3,835.6,555.2,866.1,559.3z M840.7,449.7c7.1-4.4,14.5-8.3,19.9-14.8
		c0.9-1.1,2.6-2.1,1.9-3.8c-0.8-2.2-2.9-1.2-4.4-1c-10,1.3-19.4,4.4-28.7,8.2c-2.7,1.1-5.3,2.6-9.3,2.7c1.8-2.5,3.1-4.5,4.6-6.2
		c24.3-27.3,54.7-42.9,90.7-47.7c6.4-0.8,12.9-0.8,19.4-1.1c2.7-0.1,3.1,0.8,1.6,3.2c-17.1,26.6-38.4,48.9-66.4,64.2
		c-12.2,6.7-25.4,10.7-39.4,11.7c-5.5,0.4-10.8-0.1-16.3-2.5C823.1,457.4,832.5,454.8,840.7,449.7z M679.2,223.2
		c3.6-16.9,9.6-32.7,19.7-47c17.1-24.4,40.3-39.7,68.6-47.8c4.8-1.4,6.2-0.2,5.4,4.8c-4.3,25.5-12.4,49.6-26.1,71.6
		c-12.6,20.3-27.9,38.1-48.5,50.7c-0.6,0.3-1.1,0.8-1.7,1.1c-1.3,0.6-2.6,2.3-4,0.8c-1-1.1,0.5-2.4,1-3.6
		c8.9-18.6,19.9-36.2,29.5-54.4c4.4-8.3,8.5-16.9,9.4-26.7c-25.2,22.1-38.8,52-54.7,80.5C676.3,243,677.1,233.1,679.2,223.2z
		 M578.9,164.5c-8.1-2.8-15.8-6.3-22.3-11.8c-7.5-6.4-14.6-13.2-18.9-22.3c-0.6-1.2-2.2-2.6-0.9-4c1-1.1,2.5-0.1,3.8,0.2
		c14.4,4,25.2,12.9,34.4,24.3c3,3.8,5.8,7.7,7.7,12.7C582,165.7,580.4,165,578.9,164.5z M629.7,107c-3.9,4.1-6.8,4.2-10.9,0.1
		c-3.3-3.3-5.4-7.5-7.2-11.9c-3.6-8.9-5.3-18.1-5.5-27.7c-0.1-4.2,1-5.3,5.2-4c14.1,4.4,22.7,15.8,22.7,32.2
		C633.8,98.8,633.2,103.3,629.7,107z M607,317.4c-1.5,0.8-2.5-1.3-3.5-2.3c-14.6-15.1-30.4-28.8-48.2-40.2
		c-5.3-3.4-10.7-6.8-16.6-9.1c-1.3-0.5-3-1.7-4.1-0.2c-1,1.4,0.3,2.9,1.1,4.1c4,6.2,8.6,11.9,14.2,16.7
		c16.8,14.4,33.9,28.4,49.3,44.4c1.4,1.4,3.1,2.5,4.6,3.8c-0.3,0.5-0.5,1-0.8,1.5c-10.4,0-20.2-2.7-29.6-6.9
		c-22.8-10.1-43.8-23-61.3-41.2c-18.2-18.9-30.9-41.1-41.5-64.7c-1.4-3.1-0.2-4.1,2.8-4.5c7.8-1.1,15.6-0.3,23.4,0.5
		c23.1,2.3,43.8,11.1,62.1,25.1c23.2,17.8,39.2,40.9,48.1,68.8C607.5,314.5,608.9,316.4,607,317.4z M763.6,625.3
		c2.5-2.2,5.3-6.2,8.6-4.5c3.7,1.9,1,6.6,0.4,9.5c-3.1,15.6-8.1,30.7-14.5,45.4c-9.4,21.5-23,40.4-36.1,59.6
		c-5.3,7.8-9.9,16.1-14.2,24.5c-0.4,0.7-0.9,1.3-1.4,1.9c-1.3-8.5-0.1-16.7,1-24.9c3-24,10.4-46.7,21.7-68.1
		C737.9,652.1,749.5,637.7,763.6,625.3z M726.1,610.7c0.7-0.7,1.6-1.4,2-2.2c3.6-7.8,3.7-8,14.1-3.6c8.8,3.7,8.8,3.9,2.9,11.4
		c-11,14-21.5,28.3-29.9,44.1c-5.3,9.8-9.8,20-13.9,30.4c-0.5,1.4-0.7,2.9-2.8,4.3c-1.1-10.2,0-19.7,1.2-29.2
		c0.3-2.1,0.6-4.3,0.8-6.4c0.9-8,2.9-15.6,8.9-21.7c2.1-2.1,3.3-4.9,4.4-7.8C716.6,622.7,720.7,616.2,726.1,610.7z M787.1,319.5
		c5.2-8.7,11.3-16.8,17.6-24.7c0.8-1,1.7-2.5,3.1-2.2c1.7,0.4,0.9,2.2,1.2,3.4c1.5,6.1,0.5,12.3,1,19c0,25.6-5.1,50.6-18.7,73.3
		c-4.6,7.7-10.1,14.8-15.9,21.7c-0.7,0.8-1.5,2.1-2.8,1.6c-1.2-0.4-1.4-1.7-1.6-2.9C765.6,376.9,770.5,347.1,787.1,319.5z
		 M720.4,372.5c-1.3,18.7-12.1,32.4-23.7,45.6C698.8,400,706.5,384.6,720.4,372.5z M688,454.8c2.4-6.3,7.5-10.1,12-14.4
		c4.6-4.3,9.3-8.6,13.9-12.8c0,0,0,0,0,0c0,0,0,0,0,0c6.7-7.8,11.4-17,17.5-25.2c5-6.6,13.2-10.6,21-15.5c0.5,8.2,1,15.7,1.5,23.2
		c7.2,21.8,4,43.2-1.8,64.6c-6.1,22.4-16.7,42.7-28.1,62.7c-7.3,12.9-13.8,26.3-19.1,40.1c-1.3,3.3-2.7,4.2-6.2,3.5
		c-11.6-2.4-11.4-2.3-12.5-14.3c-2-21.4-5.6-42.6-6.4-64.1C679.2,486.3,682,470.2,688,454.8z M677.3,680.6
		c4.3,34.3,3.7,67.6,7.2,100.8c-6.6-9-11.8-18.5-18.9-26.8c-4.3-4.9-8.7-9.6-14-13.4c-2.5-1.8-2.5-3-0.7-5.6
		c8.4-12.2,13.7-25.6,16.4-40.2C668.3,689.4,673.5,686,677.3,680.6z M629.1,741.8c5.7,2.8,11.1,6,16.1,9.9
		c13.3,10.5,21.7,24.6,28.7,39.6c2.7,5.9,5,12,7.7,17.8c2.1,4.5,1.4,9.2,1.3,13.8c-0.1,2.9-2,2.2-3.4,0.9c-5.9-5.7-13-9.2-21-10.8
		c-2.3-0.5-3.2-2-3.7-4.2c-5.1-23.5-17.6-43.2-32.8-61.3c-4.2-5-4.1-10.1-2.2-15.4c3.6-10.4,8.6-20.2,13.5-30
		c5-10,9.6-20.1,11.5-31.2c0.2-1.3,0-2.9,1.5-3.4c1.8-0.6,2.6,1.2,3.6,2.2c4.4,4.4,6.1,9,6.1,17.8c-1.7,13.9-7,28.7-14.9,42.6
		c-1.2,2.2-3.2,3.3-5.9,2.9c-1.3-0.2-2.7-0.2-4-0.2c-2.6,0-4.6,1-5.4,3.6C625.1,739.2,626.8,740.7,629.1,741.8z M672.7,441.6
		c0.6-0.5,1.7-1,2.1,0c0.9,2.3-0.7,3.9-1.9,6.8C671.7,445.4,670.4,443.5,672.7,441.6z M618.1,477.5c6.3-3.7,12.4-7.7,18.6-11.6
		c0,0,0,0,0,0c4.7-3.2,9.3-6.5,14.1-9.7c2.1-1.4,3.5-1.1,2.9,1.9c1.9,14.7,3.8,29.3,5.6,44c2.6,20.8,5.2,41.6,7.7,62.4
		c0.2,1.9,0.7,3.9-0.3,6.2c-3-1.6-4.2-4.7-6.1-7.1c-5.6-7-11.2-14.1-16.4-21.4c-4.6-6.5-6.2-14.3-8.9-21.6
		c-4.8-13-10.7-25.4-18.5-36.9C614.8,480.7,614.9,479.3,618.1,477.5z M540.7,544.9c-18.7-1.5-36.3-7.6-53.6-14.8
		c-30.9-12.8-56.1-34.1-82.3-54c-2.9-2.2-5.7-4.5-8.7-6.7c-2.4-1.9-2.3-3.2,0.5-4.7c24.1-13.3,49.4-22.9,77-25.9
		c29.1-3.2,56.8,1.6,82.5,15.4c27.2,14.7,48.2,35.8,60.3,64.8c0.2,0.6,0.4,1.2,0.9,3.2c-8.6-5.1-16-9.6-23.7-13.9
		c-20.8-11.7-43-20.2-65.8-27.2c-17.7-5.4-35.8-8.9-54.3-9.8c-3.1-0.2-6.3,0.4-9.4,0.7c-1.1,0.1-2.6-0.2-2.8,1.4
		c-0.2,1.6,1,2.2,2.4,2.6c5.5,1.5,10.9,3,16.4,4.5c29.3,7.7,58,17.5,85.3,30.6c14.7,7,29,14.7,42.1,25.2c-1.8,2-4.2,2.4-6.5,3
		C581.2,544.6,561,546.5,540.7,544.9z M496.8,962.7c-3.8-12.4-4.1-25.2-4.5-38c0-1,0-2,0-3c-0.1,0-0.1,0-0.2,0c0.2-4,0.4-8,0.6-11.9
		c0.2-3,1.4-2.9,3.3-1.1c1.9,1.8,3.6,3.9,4.9,6.3c5.6,10.6,8.6,21.9,8,34c-0.3,5.9-2.2,11-6.5,15.2
		C499.3,967.2,498.1,966.9,496.8,962.7z M551.8,720.9c-3.8-2.8-8-4.7-12.9-4.8c-2-0.1-3.7,0.4-4.5,2.4c-1,2.2,0.1,3.9,1.7,5.2
		c0.6,0.5,1.2,1.2,2,1.5c12.6,5.5,16.8,16.2,17.8,28.9c1.4,17.4,1,34.6-4.1,51.4c-2.6,8.7-4.5,10-13.7,9.5c-3.2-0.2-6.3-0.8-9.4-0.8
		c-2.8,0-5.6,0.8-6.1,4c-0.5,2.9,2.2,3.8,4.3,4.8c4.6,2.1,9.4,3.3,14.5,3c4.2-0.3,6.7,1.7,7.7,5.6c8.8,34.6,12.7,69.4,4.9,104.7
		c-3.4,15.5-10.6,29.1-24.1,38.4c-6.2,4.3-12.9,6.9-20.7,4.6c-1.5-0.4-3-0.8-3.4-2.5c-0.4-1.7,1.3-2.1,2.3-2.9
		c8.2-6.7,11.8-15.5,12-25.8c0.2-14.1-3.2-27.3-10.5-39.5c-3.2-5.4-7.4-9.9-13.1-12.7c-2.3-1.1-3.8-2.6-3.9-5.3
		c-0.3-18.4-5.3-36.2-7.6-54.3c-1.3-10.3-1.4-20.5-1-30.9c0.7-19.1-1.7-38-8.7-55.9c-5.4-14-6.7-27.3,1.3-40.7
		c4.5-7.6,8.7-15.3,13.3-22.9c19.6-32.5,40.3-64.3,58-98c3.1-5.9,5.7-12.1,7.5-18.5c0.8-2.9,2.3-4.3,5.2-4.3
		c20.6,0.4,40.6-3.6,60.7-7c9.5-1.6,14.7,3.9,19.4,10.2c12.2,16.3,20.6,34.5,26.5,54c1,3.3,0.1,4.7-3.1,5.8
		c-8.8,3-17.8,5.5-26.9,7.6c-6,1.4-6,1.4-5.9-4.8c0-0.7,0-1.3,0-2c0.2-10.2-3.6-18.4-11.7-24.7c-1.2-0.9-2.5-1.7-4.1-1.7
		c-1.8,0-3.8-0.2-4.9,1.7c-1.1,2-0.6,4,1,5.5c11.9,11.5,10.8,24.7,4.6,38.2c-12.5,27.5-30.6,51-51.9,72.1
		C558.8,725.4,557.8,725.3,551.8,720.9z M686.9,886.7c0.1,3.3-0.5,6.6-0.9,9.9c-0.4,3-1.6,4.5-4.5,2.1
		c-14.3-11.4-30.2-19.9-46.7-27.5c-22.6-10.4-39.8-27.6-54.6-47.1c-4.7-6.2-9-12.8-13.8-19c-2.1-2.7-2.5-5.1-1.8-8.3
		c3.2-16.7,4.4-33.5,0.2-50c-2.2-8.7,0.2-13,6.6-19.1c22.9-21.8,41.6-47,55.1-75.8c1.2-2.6,2.6-3.6,5.4-4.1
		c11.7-2.5,23.5-4.6,34.7-9.2c2.5-1,4.3-0.8,4.9,2.6c1.2,7,2.7,14,4.1,21c-0.4,2.1-6.1,10.5-8,11.2c-1.9,0.7-2.3-1-2.8-2.1
		c-5.9-12.2-16.1-18.5-28.9-21.6c-2.8-0.7-5.1-0.4-6.4,2.1c-1.4,2.6,0.1,4.4,2.3,5.8c2.3,1.4,2.5,3.7,2.5,6.1
		c0.3,12-4.9,22.2-10.1,32.5c-5.9,11.7-11.8,23.5-15.3,36.2c-0.8,2.8-2.3,2.8-4.5,1.7c-4.3-2.3-8.9-3.6-13.9-3.4
		c-2.7,0.1-5,0.8-6.6,3c-1.6,2.1-1.4,4.6,1.2,5.2c24.6,5.7,36.9,24.6,48.5,44.4c4.7,8.1,8,16.8,10.7,25.8c1.2,3.9,0.7,7-2.6,9.8
		c-2.8,2.3-5.2,5.1-7.8,7.7c-1.8,1.7-2.3,3.7-0.9,5.8c1.4,2.2,3.4,2.8,6.1,2c4.1-1.2,6.8-4.2,9.4-7.2c3.6-4.1,7.9-4.2,12.2-2.3
		c9.7,4.1,16.5,11.7,22.4,20.1c1,1.4,1.2,3.1,1.1,4.8c-0.4,7.6,1.6,14.8,3.3,22.1C688.5,876.7,686.8,881.7,686.9,886.7z
		 M691.6,615.5c-1.2-0.1-1.3-1.3-1.4-2.3c-0.6-7-1.1-13.9-1.7-20.9c-0.2-0.8-0.3-1.9,0.6-2.1c3.1-0.7,5.9,0.5,8.6,1.7
		c2.4,1.1,1,3.1,0.5,4.8c-1.5,5.4-3,10.9-4.6,16.3C693.3,614.2,693.1,615.6,691.6,615.5z M720.1,909.2c-0.3,3.2-2.7,7-5.9,7.2
		c-3.8,0.3-1.2-3.9-2.5-5.7c1.2-2-1.4-5.6,2.6-5.4C716.5,905.4,720.4,906,720.1,909.2z M749,891.6c-7.9-2.7-16-4.6-23.3-8.8
		c-8.6-4.9-12.3-12-10.3-21.8c3.4-16.1,10.4-30.5,21.7-42.6c4.8-5.2,10.9-7.4,17.9-7.4c17.9,0.1,28.3,15.1,22.1,31.8
		c-5.9,16-14.2,30.8-22,45.9C753.8,891.4,751.8,892.6,749,891.6z"/>
	<path class="st1" d="M809.8,390.9c-7.6,14.4-17.8,26.9-28.8,38.8c-2.1,2.3-5,4.4-5.4,7.6c-1.7,11.9-3.1,23.8-4.6,35.6
		c-0.1,0.7,0,1.9,0.5,2.3c1,0.8,1.8-0.3,2.5-1c5.7-6,11.7-11.8,16-19c7.6-12.7,14.7-25.7,24.8-36.7c38.2-41.7,85.3-58.8,141.4-51.4
		c9.4,1.2,11.1,4.8,7.2,13.3c-0.4,0.8-0.7,1.5-1.1,2.2c-17.5,32.3-39.4,60.9-70.2,81.8c-28,19.1-58.7,23.5-91.3,16.1
		c-3.5-0.8-6.1-0.5-8.8,1.5c-8,6-15.4,12.8-21.6,20.6c-19.3,24-33.8,50.9-46.3,79c-1.5,3.3-1,4.8,2.8,5.4c9.4,1.5,18.5,3.9,27.3,7.9
		c1.9,0.9,4.1,3.3,6.3,0.8c1.8-2.1,4.3-4.2,2.9-7.9c-1.1-2.9,0.2-5.3,3.5-6c6.7-1.5,15.8-11.2,17.1-17.9c0.8-4.4,1.9-8.8,4.8-12.4
		c2.7-3.3,6.4-2.7,7.4,1.4c0.9,3.7,2.1,2.8,4.4,1.4c11.2-7,22.9-12.7,36-15.2c19.5-3.8,38.7-3.5,57.1,4.6c7.9,3.4,9.1,9.3,3.3,15.8
		c-16.4,18.4-36.1,32.1-59,41.4c-14.8,6-30.5,7.7-45.9,10.6c-3.6,0.7-4.5,1.9-4.9,5.3c-3.8,33.2-14,64.2-32.1,92.5
		c-11.4,17.8-24.4,34.5-34.1,53.4c0.1,2.3-1.3,4.1-2.3,6c-6.9,13-12.5,26.4-16.5,40.5c-3.8,13.3-6.9,26.7-6,40.6
		c0.6,9.7,1.8,19.4,8,28.1c1.6-2.5-0.1-4.3-0.1-6.1c-0.4-22.3,7.1-41.6,21.8-58.2c5.8-6.5,12-12.3,21-14.3
		c18.7-4.1,46.3,11.6,44.1,34.8c-0.3,3.7,0,7.7-3,10.7c0,0,0,0,0,0c0,0,0,0,0,0c-5.1,13.1-11.7,25.6-18.5,39.3
		c3.4-1.3,4.5-2.8,5.5-4.3c9-12,15.7-25.5,23-38.6c19-33.9,36.7-68.4,50-104.9c14.5-39.5,36-74,66.6-103
		c17.2-16.3,34.5-32.3,50.8-49.6c12.3-13,22.9-27.2,31.1-43.2c16.2-31.7,23.9-65.5,25.2-100.9c0.5-13.4,2.6-26.5,6.5-39.3
		c3.6-12,8.7-23.3,14.4-34.4c-1.1-3.3,0.8-6.1,1.6-9.1c1.8-6.7,5.6-12.6,6.3-19.8c1.2-12.1,1.1-24.3,0.2-36.3
		c-0.5-6.7-2.4-13.3-6.7-18.9c-5.7-7.4-14.5-6.9-19,1.3c-3,5.6-5,11.6-7.1,17.5c-4.9,13.9-9.1,28.1-17.5,40.5
		c-3.8,5.6-9,8.8-15.9,8.6c-9.2-0.2-18-3.1-26.7-5.6c-23.8-6.9-47.1-7.6-69.7,3.9c-22.6,11.5-45.7,21.9-68.7,32.4
		c-1.4,0.7-3.1,2.6-4.7,0.1c0,0,0,0,0,0C813.1,384.1,811.5,387.6,809.8,390.9z M810.9,786.2c-0.5,2.3-2.4,3-4.9,3
		c-3.8-0.6-7.7-2-11.5-3.6c-12.9-5.5-24.5-13.2-35-22.6c-0.9-0.8-1.8-1.6-2.4-2.5c-1.6-2.2-3.4-4.6-1.1-7.1c2.3-2.5,4.9-0.7,6.6,0.8
		c13.5,11.3,28.5,19.9,44.6,26.8C809.5,781.9,811.6,783.2,810.9,786.2z M822.7,756.4c-1.6,3.7-5,2.7-7.8,1.5
		c-15.5-6.7-29.7-15.5-43.9-24.5c-1.5-0.9-3.3-2.2-2.4-4.4c0.9-2.4,3.2-2,6.4-2c1.6,0,4.2,0.8,6.7,2.3c12.2,7.2,24.3,14.3,36.9,20.7
		C821.3,751.3,824.3,752.8,822.7,756.4z"/>
	<path class="st1" d="M615.9,648.1c6.1-13.5,7.3-26.7-4.6-38.2c-1.5-1.5-2.1-3.4-1-5.5c1.1-1.9,3-1.7,4.9-1.7c1.6,0,2.8,0.7,4.1,1.7
		c8.1,6.2,11.9,14.5,11.7,24.7c0,0.7,0,1.3,0,2c-0.1,6.2-0.1,6.2,5.9,4.8c9.1-2.1,18-4.6,26.9-7.6c3.3-1.1,4.1-2.5,3.1-5.8
		c-5.8-19.5-14.3-37.7-26.5-54c-4.8-6.4-9.9-11.9-19.4-10.2c-20.1,3.4-40.2,7.5-60.7,7c-2.9-0.1-4.3,1.4-5.2,4.3
		c-1.9,6.4-4.4,12.5-7.5,18.5c-17.6,33.7-38.3,65.5-58,98c-4.6,7.5-8.8,15.3-13.3,22.9c-7.9,13.4-6.7,26.7-1.3,40.7
		c6.9,17.9,9.4,36.8,8.7,55.9c-0.4,10.3-0.3,20.6,1,30.9c2.4,18.1,7.3,35.9,7.6,54.3c0,2.7,1.6,4.2,3.9,5.3
		c5.7,2.8,9.9,7.2,13.1,12.7c7.3,12.2,10.7,25.3,10.5,39.5c-0.2,10.4-3.8,19.2-12,25.8c-1,0.8-2.7,1.1-2.3,2.9
		c0.4,1.7,2,2.1,3.4,2.5c7.8,2.3,14.5-0.3,20.7-4.6c13.5-9.3,20.7-22.9,24.1-38.4c7.8-35.3,3.9-70.1-4.9-104.7
		c-1-3.9-3.5-5.9-7.7-5.6c-5.1,0.4-9.9-0.9-14.5-3c-2.1-1-4.8-1.9-4.3-4.8c0.5-3.2,3.3-4,6.1-4c3.1,0,6.3,0.7,9.4,0.8
		c9.2,0.5,11.1-0.7,13.7-9.5c5.1-16.8,5.5-34.1,4.1-51.4c-1-12.7-5.1-23.4-17.8-28.9c-0.7-0.3-1.3-1-2-1.5c-1.7-1.4-2.7-3.1-1.7-5.2
		c0.8-2,2.6-2.5,4.5-2.4c4.8,0.2,9,2.1,12.9,4.8c6,4.4,7,4.6,12.2-0.7C585.3,699,603.4,675.5,615.9,648.1z"/>
	<path class="st2" d="M601,539.2c2.3-0.6,4.7-1,6.5-3c-13-10.4-27.4-18.1-42.1-25.2c-27.4-13.1-56-22.9-85.3-30.6
		c-5.5-1.4-10.9-3-16.4-4.5c-1.4-0.4-2.6-1-2.4-2.6c0.2-1.5,1.7-1.3,2.8-1.4c3.1-0.3,6.3-0.8,9.4-0.7c18.5,1,36.5,4.4,54.3,9.8
		c22.8,7,45,15.4,65.8,27.2c7.6,4.3,15.1,8.9,23.7,13.9c-0.6-2-0.7-2.7-0.9-3.2c-12.1-29-33.1-50.1-60.3-64.8
		c-25.7-13.8-53.4-18.6-82.5-15.4c-27.6,3.1-52.9,12.6-77,25.9c-2.7,1.5-2.9,2.8-0.5,4.7c2.9,2.2,5.7,4.5,8.7,6.7
		c26.2,19.9,51.5,41.1,82.3,54c17.3,7.2,34.9,13.3,53.6,14.8C561,546.5,581.2,544.6,601,539.2z"/>
	<path class="st3" d="M687.4,871.8c-1.7-7.3-3.7-14.5-3.3-22.1c0.1-1.7-0.1-3.4-1.1-4.8c-5.9-8.4-12.7-15.9-22.4-20.1
		c-4.3-1.8-8.6-1.8-12.2,2.3c-2.6,3-5.3,5.9-9.4,7.2c-2.7,0.8-4.6,0.2-6.1-2c-1.4-2.1-0.8-4.1,0.9-5.8c2.6-2.6,5-5.4,7.8-7.7
		c3.3-2.7,3.8-5.8,2.6-9.8c-2.7-9-6-17.7-10.7-25.8c-11.5-19.8-23.9-38.7-48.5-44.4c-2.7-0.6-2.9-3.1-1.2-5.2c1.6-2.1,3.9-2.9,6.6-3
		c5-0.2,9.6,1,13.9,3.4c2.1,1.2,3.7,1.1,4.5-1.7c3.5-12.7,9.4-24.5,15.3-36.2c5.2-10.3,10.3-20.6,10.1-32.5
		c-0.1-2.4-0.3-4.7-2.5-6.1c-2.2-1.4-3.7-3.2-2.3-5.8c1.4-2.5,3.6-2.8,6.4-2.1c12.8,3.1,23,9.3,28.9,21.6c0.5,1.1,0.9,2.8,2.8,2.1
		c1.9-0.7,7.6-9.1,8-11.2c-1.4-7-2.9-14-4.1-21c-0.6-3.4-2.4-3.7-4.9-2.6c-11.1,4.6-23,6.7-34.7,9.2c-2.8,0.6-4.2,1.5-5.4,4.1
		c-13.5,28.8-32.2,54-55.1,75.8c-6.4,6.1-8.8,10.3-6.6,19.1c4.2,16.5,3,33.4-0.2,50c-0.6,3.2-0.3,5.6,1.8,8.3
		c4.8,6.1,9,12.7,13.8,19c14.9,19.6,32,36.7,54.6,47.1c16.5,7.6,32.4,16.2,46.7,27.5c2.9,2.3,4.2,0.9,4.5-2.1c0.4-3.3,1-6.6,0.9-9.9
		C686.8,881.7,688.5,876.7,687.4,871.8z"/>
	<path class="st1" d="M686.2,566.7c1.1,12,1,11.9,12.5,14.3c3.5,0.7,5-0.2,6.2-3.5c5.3-13.9,11.7-27.2,19.1-40.1
		c11.4-20,22-40.3,28.1-62.7c5.8-21.5,9-42.9,1.8-64.6c-11.9,5.6-23.7,11.3-35.7,16.8c-1.2,0.6-2.6,2.4-4.4,0.6c0,0,0,0,0,0
		c-4.6,4.3-9.3,8.5-13.9,12.8c-4.6,4.3-9.6,8.1-12,14.4c-6,15.4-8.8,31.5-8.2,47.9C680.6,524.1,684.2,545.4,686.2,566.7z"/>
	<path class="st4" d="M558.9,244.1c-18.3-14-39-22.8-62.1-25.1c-7.8-0.8-15.6-1.6-23.4-0.5c-3.1,0.4-4.2,1.4-2.8,4.5
		c10.7,23.6,23.4,45.8,41.5,64.7c17.5,18.2,38.5,31.1,61.3,41.2c9.4,4.2,19.2,6.9,29.6,6.9c0.3-0.5,0.5-1,0.8-1.5
		c-1.6-1.3-3.3-2.4-4.6-3.8c-15.3-16-32.4-30.1-49.3-44.4c-5.6-4.8-10.2-10.5-14.2-16.7c-0.8-1.2-2.1-2.7-1.1-4.1
		c1.1-1.5,2.8-0.3,4.1,0.2c5.9,2.3,11.3,5.7,16.6,9.1c17.8,11.3,33.5,25.1,48.2,40.2c1,1,2,3.1,3.5,2.3c1.8-1,0.5-2.9,0-4.4
		C598.2,285,582.2,261.9,558.9,244.1z"/>
	<path class="st4" d="M732.4,172.7c-0.9,9.8-5,18.3-9.4,26.7c-9.6,18.3-20.5,35.8-29.5,54.4c-0.5,1.1-2,2.5-1,3.6
		c1.3,1.5,2.7-0.2,4-0.8c0.6-0.3,1.1-0.7,1.7-1.1c20.7-12.6,35.9-30.3,48.5-50.7c13.7-22.1,21.8-46.2,26.1-71.6
		c0.8-5-0.5-6.2-5.4-4.8c-28.3,8.2-51.5,23.4-68.6,47.8c-10,14.3-16,30.2-19.7,47c-2.1,9.9-2.9,19.8-1.5,30
		C693.6,224.7,707.2,194.8,732.4,172.7z"/>
	<path class="st5" d="M830.7,465c14-1,27.2-5,39.4-11.7c28-15.3,49.2-37.6,66.4-64.2c1.5-2.4,1.1-3.3-1.6-3.2
		c-6.5,0.3-13,0.3-19.4,1.1c-36.1,4.7-66.5,20.4-90.7,47.7c-1.6,1.8-2.8,3.8-4.6,6.2c4-0.1,6.6-1.6,9.3-2.7
		c9.3-3.8,18.7-6.9,28.7-8.2c1.5-0.2,3.6-1.1,4.4,1c0.6,1.7-1,2.6-1.9,3.8c-5.5,6.5-12.9,10.4-19.9,14.8
		c-8.2,5.1-17.7,7.7-26.3,12.8C819.9,464.9,825.3,465.4,830.7,465z"/>
	<path class="st6" d="M755.1,811.1c-7,0-13.1,2.2-17.9,7.4c-11.4,12.1-18.4,26.5-21.7,42.6c-2.1,9.8,1.7,16.8,10.3,21.8
		c7.3,4.2,15.5,6.1,23.3,8.8c2.8,0.9,4.7-0.2,6.1-2.8c7.8-15.1,16.1-29.9,22-45.9C783.4,826.3,773,811.2,755.1,811.1z"/>
	<path class="st7" d="M631.3,732.8c1.3,0,2.7,0,4,0.2c2.7,0.4,4.6-0.7,5.9-2.9c7.9-13.9,13.2-28.6,14.9-42.6
		c0-8.9-1.7-13.4-6.1-17.8c-1-1-1.8-2.8-3.6-2.2c-1.5,0.5-1.3,2.2-1.5,3.4c-1.9,11.1-6.5,21.3-11.5,31.2c-4.9,9.8-9.9,19.7-13.5,30
		c-1.8,5.3-2,10.4,2.2,15.4c15.3,18.1,27.7,37.8,32.8,61.3c0.5,2.2,1.4,3.7,3.7,4.2c8,1.6,15.1,5.1,21,10.8c1.4,1.3,3.3,2,3.4-0.9
		c0.1-4.6,0.8-9.3-1.3-13.8c-2.8-5.9-5-12-7.7-17.8c-7-15-15.5-29.1-28.7-39.6c-5-4-10.4-7.1-16.1-9.9c-2.3-1.1-4-2.6-3.2-5.4
		C626.7,733.8,628.8,732.8,631.3,732.8z"/>
	<path class="st2" d="M772.7,411.5c1.3,0.5,2.1-0.8,2.8-1.6c5.8-6.9,11.3-14,15.9-21.7c13.6-22.7,18.7-47.7,18.7-73.3
		c-0.5-6.7,0.5-12.9-1-19c-0.3-1.2,0.4-3.1-1.2-3.4c-1.4-0.3-2.3,1.2-3.1,2.2c-6.3,7.9-12.4,16-17.6,24.7
		c-16.7,27.6-21.5,57.5-16,89.1C771.3,409.7,771.6,411,772.7,411.5z"/>
	<path class="st1" d="M635.2,520.6c2.7,7.3,4.3,15.2,8.9,21.6c5.2,7.3,10.8,14.4,16.4,21.4c1.9,2.3,3.1,5.4,6.1,7.1
		c1-2.3,0.5-4.3,0.3-6.2c-2.5-20.8-5.1-41.6-7.7-62.4c-1.8-14.7-3.7-29.3-5.6-44c-5.9,2.1-10.7,6.5-17,7.8c0,0,0,0,0,0c0,0,0,0,0,0
		c-6.2,3.9-12.3,7.9-18.6,11.6c-3.1,1.8-3.3,3.3-1.3,6.2C624.5,495.2,630.5,507.6,635.2,520.6z"/>
	<path class="st8" d="M787.8,591.5c30.5,0.1,55.4-12.5,78.3-32.1C835.6,555.2,802.3,572.3,787.8,591.5z"/>
	<path class="st9" d="M611.3,63.6c-4.2-1.3-5.3-0.1-5.2,4c0.2,9.6,1.9,18.8,5.5,27.7c1.7,4.4,3.8,8.5,7.2,11.9
		c4.1,4.1,7,3.9,10.9-0.1c3.5-3.7,4.1-8.2,4.2-11.2C633.9,79.4,625.3,68,611.3,63.6z"/>
	<path class="st10" d="M501,914.9c-1.2-2.4-2.9-4.4-4.9-6.3c-1.9-1.8-3.1-1.9-3.3,1.1c-0.3,4-0.4,8-0.6,11.9c0.1,0,0.1,0,0.2,0
		c0,1,0,2,0,3c0.4,12.8,0.7,25.6,4.5,38c1.3,4.3,2.5,4.6,5.7,1.4c4.3-4.2,6.2-9.3,6.5-15.2C509.5,936.8,506.5,925.6,501,914.9z"/>
	<path class="st11" d="M540.6,126.6c-1.3-0.4-2.8-1.3-3.8-0.2c-1.3,1.4,0.3,2.7,0.9,4c4.3,9.1,11.4,15.9,18.9,22.3
		c6.5,5.6,14.3,9.1,22.3,11.8c1.5,0.5,3.1,1.2,3.7-0.8c-1.9-5-4.7-8.9-7.7-12.7C565.8,139.6,554.9,130.7,540.6,126.6z"/>
	<path class="st12" d="M790.9,834.3c2.2-23.2-25.5-38.8-44.1-34.8c-9.1,2-15.2,7.8-21,14.3c-14.8,16.5-22.2,35.9-21.8,58.2
		c0,1.8,1.7,3.6,0.1,6.1c-6.2-8.8-7.4-18.4-8-28.1c-0.8-13.9,2.3-27.4,6-40.6c4-14.1,9.6-27.6,16.5-40.5c1-1.9,2.5-3.6,2.3-6
		c-5.1,7-8.5,15-11.7,23c-9.1,22.1-16.1,44.8-14,69.2c1.4,16.7,8.3,30.3,22.9,39.3c6.4,3.9,13.2,6.7,22.5,5.3c-3-1.2-4.6-2-6.3-2.4
		c-5.5-1.4-10.7-3.7-15.6-6.5c-9.7-5.5-14.6-13.8-13.5-25.2c2-22,10.7-40.9,26.9-56.2c8.9-8.3,19.1-11.8,30.7-7.9
		c12.4,4.1,22.7,10.9,26.4,24.8c1.7,6.5-0.9,12.5-1.2,18.7c0,0,0,0,0,0C790.9,842,790.6,838,790.9,834.3z"/>
	<path class="st13" d="M696.7,418.2c11.7-13.3,22.4-27,23.7-45.6C706.5,384.6,698.8,400,696.7,418.2z"/>
	<path class="st14" d="M697.7,592c-2.7-1.2-5.5-2.5-8.6-1.7c-0.9,0.2-0.8,1.3-0.6,2.1c0.6,7,1.1,13.9,1.7,20.9
		c0.1,1,0.2,2.2,1.4,2.3c1.5,0.1,1.7-1.4,2-2.4c1.6-5.4,3-10.9,4.6-16.3C698.7,595.1,700.1,593.1,697.7,592z"/>
	<path class="st15" d="M714.3,905.3c-3.9-0.2-1.4,3.5-2.6,5.4c1.3,1.8-1.2,6,2.5,5.7c3.2-0.3,5.6-4,5.9-7.2
		C720.4,906,716.5,905.4,714.3,905.3z"/>
	<path class="st16" d="M674.7,441.6c-0.4-0.9-1.4-0.5-2.1,0c-2.3,1.8-0.9,3.7,0.2,6.8C674,445.5,675.7,443.9,674.7,441.6z"/>
	<path class="st17" d="M807.3,780.9c-16.1-6.9-31.2-15.5-44.6-26.8c-1.8-1.5-4.4-3.3-6.6-0.8c-2.3,2.5-0.5,5,1.1,7.1
		c0.7,0.9,1.6,1.7,2.4,2.5c10.4,9.4,22,17.1,35,22.6c3.8,1.6,7.7,3,11.5,3.6c2.5-0.1,4.4-0.7,4.9-3
		C811.6,783.2,809.5,781.9,807.3,780.9z"/>
	<path class="st18" d="M818.7,750c-12.6-6.4-24.8-13.6-36.9-20.7c-2.5-1.5-5.1-2.3-6.7-2.3c-3.3,0-5.5-0.4-6.4,2
		c-0.9,2.2,0.9,3.5,2.4,4.4c14.2,9,28.4,17.8,43.9,24.5c2.8,1.2,6.1,2.2,7.8-1.5C824.3,752.8,821.3,751.3,818.7,750z"/>
</g>
</svg>